<svg xmlns="http://www.w3.org/2000/svg" viewBox="0 0 179 179">
  <path fill="#607d8b" d="M155.8 101.6c-3-22.5-15.4-38.8-30.7-38.8H54C38.5 62.8 26.2 79 23 101.6c-11 5.6-16.7 17-16.7 30.5 0 10.4 3.4 19.6 10 25.8V179h26.3v-13h93.4v13h26.4v-21.2c6.5-6.2 10-15.4 10-25.7 0-13.3-5.8-24.8-16.8-30.4zm-102-31h71.3c10.2 0 19 12 22.2 28l-5.2-.5c0-9.3-7.5-17-17-17s-16.8 7.7-16.8 17h-69c-2.7 0-5 .3-7.4.7 3.3-16 12-28 22-28zM137 98h-23.3c0-6.4 5.2-11.6 11.6-11.6 6.5 0 11.8 5.2 11.8 11.6zM35.2 143c-6 0-11-4.8-11-11 0-6 5-11 11-11s11 5 11 11c0 6.2-5 11-11 11zm86.4-1.8H57.4c-1.5 0-2.7-1.2-2.7-2.7 0-1.4 1.2-2.6 2.7-2.6h64.2c1.5 0 2.7 1 2.7 2.5s-1.2 2.7-2.7 2.7zm0-9.7H57.4c-1.5 0-2.7-1.2-2.7-2.7 0-1.4 1.2-2.6 2.7-2.6h64.2c1.5 0 2.7 1.2 2.7 2.6 0 1.5-1.2 2.7-2.7 2.7zm22.2 11.6c-6 0-11-4.8-11-11 0-6 5-11 11-11s11 5 11 11c0 6.2-5 11-11 11zM131 32.8c4 6 10.6 10.2 18.2 10.2 8.4 0 15.6-5 19.2-12H154c-5 0-9-4.3-9-9.6 0-5.2 4-9.5 9-9.5h14.3c-3.5-7-10.7-12-19-12-7.7 0-14.4 4-18.2 10H41c-3.3-3.5-8-5.8-13-5.8-9.6 0-17.4 7.7-17.4 17.2 0 9.6 7.8 17.3 17.3 17.3 5 0 9.7-2.4 13-6h90zM23.5 29.3l-4.6-8 4.6-7.7h9l4.6 7.8-4.5 8h-9z"/>
</svg>
